<svg xmlns="http://www.w3.org/2000/svg" viewBox="0 0 1066.02 507.71"><defs><style>.cls-1{fill:#21201f;}.cls-2{fill:#e2d637;}</style></defs><title>Fichier 2</title><g id="Calque_2" data-name="Calque 2"><g id="Calque_1-2" data-name="Calque 1"><path class="cls-1" d="M753.21,18.16A31.06,31.06,0,0,1,765.53,29.8,32.14,32.14,0,0,1,770,46.56a32.78,32.78,0,0,1-4.43,16.93,31.33,31.33,0,0,1-12.32,11.78,39.15,39.15,0,0,1-35.48,0,31.33,31.33,0,0,1-12.32-11.78A32.78,32.78,0,0,1,701,46.56a32.31,32.31,0,0,1,4.43-16.85,30.89,30.89,0,0,1,12.32-11.6,39.61,39.61,0,0,1,35.48.05ZM729.06,33.25a14.38,14.38,0,0,0-4.92,5.51,16.63,16.63,0,0,0-1.84,7.88,16.88,16.88,0,0,0,1.84,7.93,14.66,14.66,0,0,0,4.92,5.6,11.79,11.79,0,0,0,6.68,2.06,11.38,11.38,0,0,0,6.54-2,13.81,13.81,0,0,0,4.66-5.6,18.44,18.44,0,0,0,1.7-8,18.11,18.11,0,0,0-1.7-7.92,13.47,13.47,0,0,0-4.66-5.51,11.49,11.49,0,0,0-6.54-2A12.05,12.05,0,0,0,729.06,33.25Z"/><path class="cls-1" d="M843.16,59.37a8.52,8.52,0,0,0,6.45,2.86,7.68,7.68,0,0,0,6.09-2.82A11,11,0,0,0,858.12,52V15.29H878.9V52a28.19,28.19,0,0,1-3.63,14.47A24.52,24.52,0,0,1,865,76.12a33.5,33.5,0,0,1-15.5,3.4,34.33,34.33,0,0,1-15.64-3.4,25,25,0,0,1-10.48-9.63A27.66,27.66,0,0,1,819.68,52V15.29h20.79V52A10.32,10.32,0,0,0,843.16,59.37Z"/><path class="cls-1" d="M967.87,78.09l-7.53-16.3h-7.79v16.3H931.76V15.29h30.37q12.81,0,19.8,5.87t7,16.62a26.11,26.11,0,0,1-2.55,11.87,19.57,19.57,0,0,1-7.4,8l12.37,20.43ZM952.55,46h9.58a6.7,6.7,0,0,0,5.24-2,8,8,0,0,0,1.84-5.6A7.53,7.53,0,0,0,967.37,33a6.9,6.9,0,0,0-5.24-1.92h-9.58Z"/><path class="cls-1" d="M310.76,218.11c-36.67,3.87-73.69,7.19-110.53,11.54-1.41-15.21-2.1-30.49-2.27-45.78-.18-17-2.61-44.34-15.14-59.88C303.59,105.1,441.08,95.65,492.45,93.55c73.16-3,85.11,11.94,86.6-34.34s-44.8-49.28-44.8-49.28C192.32,23.37,31.06,93.55,31.06,93.55c-16.43,6-22.4,22.4-20.91,38.82.89,9.8,13.47,15.34,23.47,18.23a39.37,39.37,0,0,0,21.79-.14c19-5.48,40.48-10.52,63.44-15.15-5.67,14.13-11.88,41.5-6.42,88.89q1,9,2.19,18.27c-14.2,2.75-28.64,8.55-37.2,20.19-10.23,13.92-12.1,39.78.4,53.09,8.92,9.51,23.83,10.31,36.61,7.72l11.33-2.31c8,49.54,17.68,97.3,28.48,131.5,17.92,56.74,49.28,26.87,82.13,13.43,25.07-10.25-4.66-64-24.79-162.61C247.27,296.23,283,289.27,319,283.29c2.81-.46,5.72-1,8.06-2.59,3.36-2.32,4.91-6.46,5.86-10.42C336.39,255.7,334,215.65,310.76,218.11Z"/><path class="cls-1" d="M1055.65,123.47c-5.87-3.49-13.21-3.83-19.87-2.31-31.9,7.3-46.06,37.42-52.83,66.6-4,17-6.22,34.5-11.44,51.19-3.34,10.67-9.43,26.53-21.88,29.11-8.53,1.76-8.61-6.14-9.13-12.12-1.06-12.26,2.8-24.41,2.84-36.68a29.73,29.73,0,0,0-16.15-26.9c-15.91-7.88-28,4.14-36.43,14.14-8,9.49-13,21.15-18.68,32.2-4,7.69-6.58,16.05-11.54,23.26a17.68,17.68,0,0,1-9.66,7.16c-14.9,4.16-12.78-15.82-12-24.76.87-9.84,3.22-19.47,5.21-29.12,6.3-30.57,23.38-92-27.08-86.84-37.46,3.81-58.8,39.22-79.7,68.64A79.91,79.91,0,0,0,690.15,150c-24.78-9.05-57.6-7.06-95.42,29.44-38.16,36.81-56.19,83.52-54.81,122.39-12.87,8.35-25.47,17.46-38.3,25.22q-21.08,12.74-42.5,24.86c-2.69,1.52-39.68,19.42-39.68,19.34.33-11.59,5.78-24.77,8.83-36q5-18.4,10.4-36.66c9.44-31.81,19.4-63.07,33.17-93.22,9.63-21.09,22.65-52.79,1.22-71.22l-.12-.1c-11.19-9.46-30-7-42-.46-15.17,8.3-23.5,27.27-29.42,42.71-6.68,17.42-12.47,35.25-18.66,52.8-16.14,45.8-31.63,92.55-38.51,140.78-3.09,21.66-4.49,43.94-1.21,65.67C353.5,504.16,523.55,394,568.32,363.73c15.23,11.6,36.51,16.93,63.74,12.77,63.21-9.65,92.87-55.45,104.45-101.57a172.92,172.92,0,0,0,35.91-47.74s-22.4,103,32.84,128.41c36.48,16.76,73-10.67,94.1-40.34a6.44,6.44,0,0,1,10.94.75c9.38,17.74,21.83,38.81,41.41,43.18,16.47,3.67,30.3-9.24,39.72-21.09,19.18-24.09,31.32-54.08,42.29-82.54,9-23.21,19.36-45.94,25.81-70C1063.71,169.89,1073.57,134.15,1055.65,123.47ZM635.5,231.13c6.42-9.1,21-25.34,39.62-18.92,13.13,4.53,17.56,16.59,18.8,27.2a71,71,0,0,1-63.22,2.05l-.25-.45A39.08,39.08,0,0,1,635.5,231.13Zm41.31,78.08c-47,34.13-59.29-.1-62.19-13.4a130.92,130.92,0,0,0,31.07,9.13,101.35,101.35,0,0,0,37.89-1Q680.73,306.36,676.81,309.21Z"/><path class="cls-1" d="M821.31,393.19c-5.83,3.89-11.26,8.73-16.11,12.24-12.6,9.14-25.08,18.46-38.26,26.75-18.61,11.72-44.49.31-62-13-21.37-16.3-45.73-21.91-71.63-13.23-30.85,10.33-58.37,31.15-85,49.36-15.11,10.35-15,29.58-2.47,42.43,16.45,16.86,34.64,9.86,51.11-2.15C615.37,482.17,637,464,661.37,467c22.28,2.78,38.42,22.26,60.13,28.2,23.1,6.32,47.72,4.11,69.83-4.81,24.67-10,53.25-27,72.69-45,19.19-17.84,1.6-57.52-24.19-58.76C833.41,386.31,827.16,389.27,821.31,393.19Z"/><path class="cls-2" d="M115.83,311.23c8,49.54,17.68,97.3,28.48,131.49,17.92,56.74,49.28,26.88,82.13,13.44,25.07-10.26-4.67-64-24.8-162.61-6.36-29.39-11.34-73.83-11.34-73.83-1.41-15.21-2.1-30.49-2.27-45.78-.19-17-2.61-44.34-15.14-59.88-51.12-27.88-64,11.32-64,11.32-5.67,14.13-11.89,41.49-6.42,88.89q1.05,9,2.19,18.27S110.64,284.52,115.83,311.23Z"/><path class="cls-2" d="M115.83,311.23l-11.34,2.31c-12.77,2.59-27.68,1.78-36.6-7.72-12.5-13.31-10.63-39.17-.4-53.09,8.56-11.64,23-17.44,37.2-20.19,0,0,51.9-9,85.61-12.82,36.84-4.35,73.86-7.67,110.53-11.55,23.2-2.45,25.62,37.6,22.16,52.17-.95,4-2.5,8.11-5.86,10.43-2.34,1.62-5.25,2.12-8.06,2.59-36,6-71.74,12.93-107.43,20.19C201.64,293.55,156.64,304.52,115.83,311.23Z"/><path class="cls-2" d="M172.89,114.06C293.66,95.17,431.14,85.71,482.51,83.62c73.17-3,85.11,11.94,86.61-34.35S524.32,0,524.32,0C182.39,13.44,21.13,83.62,21.13,83.62,4.7,89.59-1.27,106,.22,122.44c.89,9.8,13.47,15.34,23.47,18.22a39.37,39.37,0,0,0,21.79-.13c19-5.48,40.48-10.52,63.44-15.15C108.92,125.38,140.77,114.18,172.89,114.06Z"/><path class="cls-2" d="M558.39,353.8c15.23,11.6,36.51,16.93,63.74,12.77C685.34,356.91,715,311.12,726.58,265c7.56-32.93.8-77.89.8-77.89A79.93,79.93,0,0,0,680.22,140c-24.78-9.06-57.6-7.06-95.42,29.43C546.64,206.29,528.61,253,530,291.87,530,291.87,539.77,337.66,558.39,353.8Zm67.17-132.6c6.43-9.1,21-25.35,39.63-18.92,13.13,4.52,17.56,16.59,18.79,27.2a70.93,70.93,0,0,1-63.21,2.05l-.25-.45A39.38,39.38,0,0,1,625.56,221.2Zm41.31,78.08c-47,34.13-59.28-.1-62.18-13.41A130.37,130.37,0,0,0,635.76,295,101.13,101.13,0,0,0,673.65,294C671.75,295.61,669.5,297.38,666.87,299.28Z"/><path class="cls-2" d="M1045.71,113.54c-5.87-3.49-13.2-3.83-19.86-2.31-31.9,7.3-46.06,37.42-52.83,66.6-4,17-6.22,34.5-11.45,51.19-3.33,10.67-9.42,26.53-21.87,29.11-8.53,1.76-8.61-6.14-9.13-12.12-1.06-12.26,2.79-24.41,2.84-36.68,0-11.29-6-21.89-16.16-26.9-15.9-7.88-27.94,4.14-36.42,14.14-8.05,9.49-13,21.15-18.68,32.19-4,7.7-6.58,16.05-11.55,23.27a17.65,17.65,0,0,1-9.65,7.16c-14.9,4.16-12.78-15.82-12-24.77.87-9.83,3.21-19.46,5.21-29.11,6.3-30.57,23.38-92-27.09-86.85-37.45,3.82-58.79,39.23-79.69,68.65,0,0,6.76,45-.8,77.89a173,173,0,0,0,35.9-47.74s-22.39,103,32.85,128.41c36.48,16.76,73-10.68,94.1-40.34a6.43,6.43,0,0,1,10.93.75c9.39,17.74,21.84,38.81,41.42,43.17,16.47,3.68,30.3-9.23,39.72-21.08,19.18-24.09,31.31-54.08,42.29-82.54,9-23.21,19.36-45.95,25.8-70C1053.78,160,1063.64,124.21,1045.71,113.54Z"/><path class="cls-2" d="M573,299.93c-8-27-43-8.06-43-8.06-12.87,8.35-25.47,17.46-38.31,25.22Q470.62,329.81,449.19,342c-2.69,1.52-39.68,19.42-39.68,19.34.33-11.59,5.78-24.77,8.83-36q5-18.4,10.4-36.67c9.44-31.8,19.4-63.06,33.17-93.21,9.63-21.09,22.65-52.79,1.22-71.22l-.12-.1c-11.2-9.47-30-7-42-.46-15.17,8.3-23.5,27.26-29.42,42.71-6.68,17.42-12.47,35.25-18.66,52.8-16.14,45.79-31.63,92.55-38.51,140.77-3.09,21.67-4.49,43.95-1.21,65.68,10.36,68.68,180.42-41.45,225.19-71.75C581,332.93,578.5,318.45,573,299.93Z"/><path class="cls-2" d="M811.2,383c-5.81,3.9-11.24,8.75-16.08,12.27-12.58,9.16-25,18.5-38.21,26.83-18.59,11.75-44.49.38-62-12.93-21.39-16.26-45.76-21.82-71.65-13.1-30.83,10.39-58.31,31.27-84.87,49.52C523.3,455.94,523.44,475.17,536,488c16.48,16.83,34.65,9.79,51.1-2.25,18.32-13.41,39.94-31.63,64.3-28.64,22.28,2.74,38.46,22.19,60.17,28.09,23.11,6.28,47.73,4,69.82-4.95,24.66-10,53.2-27.06,72.62-45.17,19.15-17.88,1.48-57.53-24.31-58.72C823.29,376.07,817.05,379,811.2,383Z"/></g></g></svg>