<svg xmlns="http://www.w3.org/2000/svg" width="100.609" height="1083.426" viewBox="0 0 100.609 1083.426">
  <path id="Soustraction_8" data-name="Soustraction 8" d="M883.329,1264.425H799.5V181h83.83a29.115,29.115,0,0,0-5.292,2.905,70.554,70.554,0,0,0-13.171,11.6,124.876,124.876,0,0,0-16.994,24.629,218.973,218.973,0,0,0-16.761,41.985c-11.839,40.338-17.424,91.934-16.6,153.356,1.03,76.778,12.134,169.212,33,274.735,10.908,55.155,20.264,108.145,27.808,157.5,6.857,44.862,12.371,87.723,16.388,127.393,6.765,66.813,9.465,125.928,8.023,175.7-.566,19.554-1.781,37.7-3.61,53.919-1.464,12.98-3.322,24.769-5.522,35.04a171.136,171.136,0,0,1-5.057,18.966,52.052,52.052,0,0,1-2.213,5.7Z" transform="translate(-799.5 -181)" fill="#E2D637"/>
</svg>
