<?xml version="1.0" encoding="utf-8"?>
<!-- Generator: Adobe Illustrator 22.1.0, SVG Export Plug-In . SVG Version: 6.00 Build 0)  -->
<svg version="1.1" id="Calque_1" xmlns="http://www.w3.org/2000/svg" xmlns:xlink="http://www.w3.org/1999/xlink" x="0px" y="0px"
	 viewBox="0 0 1083.4 100.6" style="enable-background:new 0 0 1083.4 100.6;" xml:space="preserve">
<style type="text/css">
	.st0{fill:#E2D637;}
</style>
<path id="Soustraction_8" class="st0" d="M0,83.8V0h1083.4v83.8c-0.8-1.9-1.8-3.6-2.9-5.3c-3.3-4.9-7.2-9.3-11.6-13.2
	c-7.5-6.6-15.8-12.3-24.6-17c-13.4-7-27.4-12.6-42-16.8C962,19.8,910.4,14.2,849,15c-76.8,1-169.2,12.1-274.7,33
	c-55.2,10.9-108.1,20.3-157.5,27.8c-44.9,6.9-87.7,12.4-127.4,16.4c-66.8,6.8-125.9,9.5-175.7,8c-19.6-0.6-37.7-1.8-53.9-3.6
	c-13-1.5-24.8-3.3-35-5.5c-6.4-1.3-12.7-3-19-5.1C3.8,85.4,1.9,84.7,0,83.8L0,83.8z"/>
</svg>
